<?xml version="1.0" encoding="utf-8"?>
<!-- Generator: Adobe Illustrator 26.0.0, SVG Export Plug-In . SVG Version: 6.00 Build 0)  -->
<svg version="1.1" id="Слой_1" xmlns="http://www.w3.org/2000/svg" xmlns:xlink="http://www.w3.org/1999/xlink" x="0px" y="0px"
	 width="220.1px" height="217.5px" viewBox="0 0 220.1 217.5" enable-background="new 0 0 220.1 217.5" xml:space="preserve">
<path fill="none" stroke="#1D1D1B" stroke-miterlimit="10" d="M45.8,55.9c0,4.5-2.2,8.5-5.7,10.8c-2.1-1.5-4.7-2.3-7.4-2.3
	c-2.8,0-5.3,0.8-7.4,2.3c-3.4-2.4-5.7-6.3-5.7-10.8c0-7.2,5.9-13.1,13.1-13.1S45.8,48.6,45.8,55.9z"/>
<path fill="#0D6AB7" stroke="#1D1D1B" stroke-miterlimit="10" d="M40.1,66.7C38,68.2,35.5,69,32.7,69s-5.3-0.8-7.4-2.3
	c2.1-1.5,4.7-2.3,7.4-2.3C35.5,64.4,38,65.3,40.1,66.7z"/>
<path fill="none" stroke="#1D1D1B" stroke-miterlimit="10" d="M45.8,77.5c0,7.2-5.9,13.1-13.1,13.1s-13.1-5.9-13.1-13.1
	c0-4.5,2.3-8.5,5.7-10.8c2.1,1.5,4.7,2.3,7.4,2.3c2.8,0,5.3-0.8,7.4-2.3C43.6,69.1,45.8,73,45.8,77.5z"/>
<path fill="#0D6AB7" stroke="#1D1D1B" stroke-miterlimit="10" d="M40.1,88.6c-2.1,1.5-4.7,2.3-7.4,2.3c-2.8,0-5.3-0.8-7.4-2.3
	c2.1-1.5,4.7-2.3,7.4-2.3C35.5,86.3,38,87.2,40.1,88.6z"/>
<path fill="none" stroke="#1D1D1B" stroke-miterlimit="10" d="M45.8,99.4c0,7.2-5.9,13.1-13.1,13.1s-13.1-5.9-13.1-13.1
	c0-4.5,2.3-8.5,5.7-10.8c2.1,1.5,4.7,2.3,7.4,2.3c2.8,0,5.3-0.8,7.4-2.3C43.6,91,45.8,94.9,45.8,99.4z"/>
<path fill="#0D6AB7" stroke="#1D1D1B" stroke-miterlimit="10" d="M40.2,110.5c-2.1,1.5-4.7,2.3-7.4,2.3c-2.8,0-5.3-0.8-7.4-2.3
	c2.1-1.5,4.7-2.3,7.4-2.3S38,109,40.2,110.5z"/>
<path fill="none" stroke="#1D1D1B" stroke-miterlimit="10" d="M45.8,121.3c0,7.3-5.9,13.1-13.1,13.1s-13.1-5.9-13.1-13.1
	c0-4.5,2.3-8.5,5.7-10.8c2.1,1.5,4.7,2.3,7.4,2.3c2.8,0,5.3-0.8,7.4-2.3C43.6,112.9,45.8,116.8,45.8,121.3z"/>
<path fill="#0D6AB7" stroke="#1D1D1B" stroke-miterlimit="10" d="M40.2,132.4c-2.1,1.5-4.7,2.3-7.4,2.3c-2.8,0-5.3-0.8-7.4-2.3
	c2.1-1.5,4.7-2.3,7.4-2.3C35.5,130.1,38,130.9,40.2,132.4z"/>
<path fill="none" stroke="#1D1D1B" stroke-miterlimit="10" d="M45.8,143.2c0,7.2-5.9,13.1-13.1,13.1s-13.1-5.9-13.1-13.1
	c0-4.5,2.3-8.5,5.7-10.8c2.1,1.5,4.7,2.3,7.4,2.3c2.8,0,5.3-0.8,7.4-2.3C43.6,134.7,45.8,138.7,45.8,143.2z"/>
<path fill="#0D6AB7" stroke="#1D1D1B" stroke-miterlimit="10" d="M40.2,154.3c-2.1,1.5-4.7,2.3-7.4,2.3c-2.8,0-5.3-0.8-7.4-2.3
	c2.1-1.5,4.7-2.3,7.4-2.3S38.1,152.8,40.2,154.3z"/>
<path fill="none" stroke="#1D1D1B" stroke-miterlimit="10" d="M45.9,165.1c0,7.2-5.9,13.1-13.1,13.1s-13.1-5.9-13.1-13.1
	c0-4.5,2.3-8.5,5.7-10.8c2.1,1.5,4.7,2.3,7.4,2.3c2.8,0,5.3-0.8,7.4-2.3C43.6,156.6,45.9,160.6,45.9,165.1z"/>
<g>
	<path d="M32.1,50.6L32.1,50.6L30,51.7l-0.3-1.2l2.6-1.4h1.4v12.1h-1.6C32.1,61.2,32.1,50.6,32.1,50.6z"/>
</g>
<g>
	<path d="M28.8,83.8v-1l1.3-1.2c3.1-2.9,4.5-4.5,4.5-6.3c0-1.2-0.6-2.4-2.4-2.4c-1.1,0-2,0.6-2.6,1L29,72.7c0.8-0.7,2-1.2,3.4-1.2
		c2.6,0,3.7,1.8,3.7,3.5c0,2.2-1.6,4-4.2,6.5l-1,0.9l0,0h5.4v1.4H28.8z"/>
</g>
<g>
	<path d="M30,104.1c0.5,0.3,1.5,0.8,2.7,0.8c2.1,0,2.8-1.3,2.7-2.3c0-1.7-1.5-2.4-3.1-2.4h-0.9V99h0.9c1.2,0,2.7-0.6,2.7-2
		c0-1-0.6-1.8-2.1-1.8c-1,0-1.9,0.4-2.4,0.8L30,94.6c0.6-0.5,1.9-0.9,3.2-0.9c2.4,0,3.5,1.4,3.5,2.9c0,1.2-0.7,2.3-2.2,2.8l0,0
		c1.5,0.3,2.7,1.4,2.7,3.1c0,1.9-1.5,3.6-4.4,3.6c-1.4,0-2.5-0.4-3.1-0.8L30,104.1z"/>
</g>
<g>
	<path d="M33.8,127.4v-3.3h-5.6V123l5.4-7.7h1.8v7.5H37v1.3h-1.7v3.3C35.3,127.4,33.8,127.4,33.8,127.4z M33.8,122.8v-4
		c0-0.6,0-1.3,0.1-1.9h-0.1c-0.4,0.7-0.7,1.2-1,1.8l-3,4.1l0,0H33.8z"/>
</g>
<g>
	<path d="M35.8,139.1h-4.6l-0.5,3.1c0.3,0,0.5-0.1,1-0.1c0.9,0,1.9,0.2,2.6,0.7c0.9,0.5,1.7,1.6,1.7,3.1c0,2.4-1.9,4.1-4.5,4.1
		c-1.3,0-2.4-0.4-3-0.7l0.4-1.2c0.5,0.3,1.5,0.7,2.6,0.7c1.5,0,2.9-1,2.9-2.6s-1.1-2.7-3.5-2.7c-0.7,0-1.2,0.1-1.7,0.1l0.8-5.8h5.8
		V139.1z"/>
</g>
<g>
	<path d="M35.9,160.7c-0.3,0-0.8,0-1.2,0.1c-2.6,0.4-3.9,2.3-4.2,4.3h0.1c0.6-0.8,1.6-1.4,2.9-1.4c2.1,0,3.6,1.5,3.6,3.9
		c0,2.2-1.5,4.3-4,4.3c-2.6,0-4.3-2-4.3-5.1c0-2.4,0.9-4.3,2-5.4c1-1,2.3-1.6,3.9-1.8c0.5-0.1,0.9-0.1,1.2-0.1V160.7z M35.5,167.7
		c0-1.7-1-2.8-2.5-2.8c-1,0-1.9,0.6-2.3,1.5c-0.1,0.2-0.2,0.4-0.2,0.7c0,2,0.9,3.5,2.7,3.5C34.5,170.6,35.5,169.4,35.5,167.7z"/>
</g>
<g>
	<g>
		<path fill="none" stroke="#1D1D1B" stroke-miterlimit="10" d="M137.5,55.1c0,8.7-4.4,16.5-11.1,21.1c-4.1-2.8-9.1-4.5-14.5-4.5
			s-10.4,1.7-14.5,4.5c-6.7-4.6-11.1-12.3-11.1-21.1c0-14.1,11.5-25.6,25.6-25.6S137.5,41,137.5,55.1z"/>
		<path fill="#0D6AB7" stroke="#1D1D1B" stroke-miterlimit="10" d="M126.4,76.2c-4.1,2.8-9.1,4.5-14.5,4.5s-10.4-1.7-14.5-4.5
			c4.1-2.8,9.1-4.5,14.5-4.5S122.3,73.3,126.4,76.2z"/>
		<g>
			<path d="M110.8,44.8L110.8,44.8l-4.2,2.2l-0.6-2.4l5.1-2.8h2.7v23.5h-3.1L110.8,44.8L110.8,44.8z"/>
		</g>
	</g>
	<path fill="none" stroke="#FF2939" stroke-miterlimit="10" d="M87.6,62.9c-1.3-3.4-2-11.4,0.6-17.4"/>
	<path fill="none" stroke="#FF2939" stroke-miterlimit="10" d="M90.6,41c1.8-3.1,7.6-8.8,13.9-10.4"/>
	<path fill="none" stroke="#FF2939" stroke-miterlimit="10" d="M108.9,29.7c3.6-0.6,11.7,0.2,16.8,3.9"/>
	<path fill="none" stroke="#FF2939" stroke-miterlimit="10" d="M130.5,37.6c2.6,2.5,6.9,9.4,7,15.8"/>
	<path fill="none" stroke="#FF2939" stroke-miterlimit="10" d="M137.3,58.1c-0.3,3.6-2.9,11.2-7.6,15.2"/>
</g>
<g>
	<path fill="none" stroke="#1D1D1B" stroke-miterlimit="10" d="M137.7,166c0,1.2-0.1,2.4-0.2,3.6c-4.6,0.8-8.1,4.7-8.1,9.5
		c0,1.7,0.4,3.3,1.2,4.7c-1.2,1.3-2.6,2.4-4,3.4c-4.1-2.9-9.2-4.5-14.6-4.5s-10.4,1.7-14.6,4.5c-5.3-3.7-9.2-9.3-10.6-15.9
		c2.3-1.8,3.7-4.5,3.7-7.6c0-2.6-1-4.9-2.7-6.6c0.9-2.5,2.2-4.8,3.8-6.8c0.9,0.3,1.8,0.4,2.8,0.4c5.2,0,9.4-4,9.6-9.1l0,0
		c1.9-0.6,3.8-1,5.8-1.2c1.5,3.5,4.9,5.9,8.9,5.9c2.4,0,4.7-0.9,6.3-2.4c1.7,1,3.4,2.3,4.8,3.7c-0.3,1-0.5,2-0.5,3.1
		c0,4.6,3.3,8.5,7.6,9.4C137.4,162,137.7,164,137.7,166z"/>
	<path fill="#0D6AB7" stroke="#1D1D1B" stroke-miterlimit="10" d="M126.5,187.3c-4.1,2.8-9.2,4.5-14.6,4.5s-10.4-1.7-14.6-4.5
		c4.1-2.9,9.2-4.5,14.6-4.5C117.4,182.7,122.4,184.4,126.5,187.3z"/>
	<g>
		<path d="M110.8,155.7L110.8,155.7l-4.2,2.2l-0.6-2.4l5.2-2.8h2.7v23.7h-3.1V155.7z"/>
	</g>
	<path fill="#FF2939" stroke="#1D1D1B" stroke-miterlimit="10" d="M137.4,169.7c-0.8,5.5-3.2,10.4-6.9,14.2c-0.8-1.4-1.2-3-1.2-4.7
		C129.4,174.4,132.9,170.4,137.4,169.7z"/>
	<path fill="none" stroke="#1D1D1B" stroke-miterlimit="10" d="M148.7,179.2c0,5.3-4.3,9.6-9.7,9.6c-3.6,0-6.8-2-8.4-5
		c3.6-3.8,6.1-8.7,6.9-14.2c0.5-0.1,1-0.1,1.6-0.1C144.3,169.5,148.7,173.8,148.7,179.2z"/>
	<path fill="#FF2939" stroke="#1D1D1B" stroke-miterlimit="10" d="M137,160.1c-4.4-0.9-7.6-4.8-7.6-9.4c0-1.1,0.2-2.1,0.5-3.1
		C133.3,151,135.9,155.3,137,160.1z"/>
	<path fill="none" stroke="#1D1D1B" stroke-miterlimit="10" d="M148.7,150.7c0,5.3-4.3,9.6-9.7,9.6c-0.7,0-1.4-0.1-2-0.2
		c-1.1-4.9-3.6-9.2-7.1-12.5c1.3-3.8,4.9-6.5,9.1-6.5C144.3,141.1,148.7,145.4,148.7,150.7z"/>
	<path fill="#FF2939" stroke="#1D1D1B" stroke-miterlimit="10" d="M125.1,143.9c-1.7,1.5-3.9,2.4-6.3,2.4c-4,0-7.5-2.4-8.9-5.9
		c0.7-0.1,1.4-0.1,2.1-0.1C116.8,140.3,121.2,141.6,125.1,143.9z"/>
	<path fill="none" stroke="#1D1D1B" stroke-miterlimit="10" d="M128.4,136.7c0,2.9-1.3,5.5-3.3,7.2c-3.8-2.3-8.3-3.6-13.1-3.6
		c-0.7,0-1.4,0-2.1,0.1c-0.5-1.1-0.8-2.4-0.8-3.7c0-5.3,4.3-9.7,9.7-9.7C124.1,127,128.4,131.3,128.4,136.7z"/>
	<path fill="#FF2939" stroke="#1D1D1B" stroke-miterlimit="10" d="M104,141.6c-0.3,5.1-4.5,9.1-9.6,9.1c-1,0-1.9-0.1-2.8-0.4
		C94.7,146.3,99,143.2,104,141.6z"/>
	<path fill="none" stroke="#1D1D1B" stroke-miterlimit="10" d="M104,141.1c0,0.2,0,0.3,0,0.5l0,0c-5,1.6-9.3,4.7-12.4,8.8
		c-4-1.2-6.9-4.9-6.9-9.2c0-5.3,4.3-9.7,9.7-9.7S104,135.7,104,141.1z"/>
	<path fill="#FF2939" stroke="#1D1D1B" stroke-miterlimit="10" d="M90.5,163.8c0,3.1-1.4,5.8-3.7,7.6c-0.4-1.7-0.5-3.5-0.5-5.3
		c0-3.1,0.6-6.1,1.6-8.9C89.5,158.9,90.5,161.2,90.5,163.8z"/>
	<path fill="none" stroke="#1D1D1B" stroke-miterlimit="10" d="M86.2,166c0,1.8,0.2,3.6,0.5,5.3c-1.6,1.3-3.7,2.1-5.9,2.1
		c-5.3,0-9.6-4.3-9.6-9.7c0-5.3,4.3-9.6,9.6-9.6c2.8,0,5.2,1.2,7,3C86.8,159.9,86.2,162.9,86.2,166z"/>
</g>
<polyline fill="none" stroke="#1D1D1B" stroke-miterlimit="10" points="32.7,30.6 32.7,7.1 111.9,7.1 111.9,13.5 "/>
<polyline fill="none" stroke="#1D1D1B" stroke-miterlimit="10" points="191.4,191.8 191.4,215.3 112.2,215.3 112.2,202 "/>
<g>
	<path fill="#0D6AB7" d="M120,18.5v-1.1l1.4-1.4c3.4-3.2,4.9-4.9,4.9-7c0-1.3-0.7-2.6-2.6-2.6c-1.2,0-2.2,0.6-2.8,1.1l-0.6-1.3
		c0.9-0.8,2.2-1.3,3.8-1.3c2.9,0,4.1,2,4.1,3.8c0,2.5-1.8,4.4-4.6,7.1l-1.1,1v0.1h5.9v1.5L120,18.5L120,18.5z"/>
</g>
<g>
	<path fill="#0D6AB7" d="M14,177.4L14,177.4l-2.5,1.4l-0.4-1.5l3.1-1.7h1.7V190H14V177.4z"/>
</g>
<g>
	<path fill="#0D6AB7" d="M116.2,107.4c0.6,0.3,1.8,0.9,3.1,0.9c2.5,0,3.2-1.6,3.2-2.7c0-2-1.8-2.8-3.6-2.8h-1.1v-1.5h1.1
		c1.4,0,3.1-0.7,3.1-2.4c0-1.1-0.7-2.1-2.5-2.1c-1.1,0-2.2,0.5-2.8,1l-0.5-1.4c0.8-0.6,2.2-1.1,3.7-1.1c2.8,0,4,1.7,4,3.4
		c0,1.5-0.9,2.7-2.6,3.3v0.1c1.7,0.3,3.1,1.7,3.1,3.6c0,2.2-1.8,4.2-5.2,4.2c-1.6,0-3-0.5-3.7-1L116.2,107.4z"/>
</g>
<g>
	<path fill="#0D6AB7" d="M204.1,209.2V205h-7.2v-1.4l6.9-9.9h2.2v9.7h2.2v1.7h-2.2v4.2L204.1,209.2L204.1,209.2z M204.1,203.3v-5.2
		c0-0.8,0-1.6,0.1-2.5h-0.1c-0.5,0.9-0.8,1.5-1.3,2.3l-3.8,5.3v0.1L204.1,203.3L204.1,203.3z"/>
</g>
<line fill="none" stroke="#1D1D1B" stroke-miterlimit="10" x1="111.9" y1="83.8" x2="111.9" y2="120.1"/>
<polygon points="187.1,191.8 195.7,191.8 191.4,186.2 "/>
<polygon points="116.2,120.1 107.6,120.1 111.9,125.8 "/>
<polygon points="116.2,13.2 107.6,13.2 111.9,18.9 "/>
<polygon points="142.8,72.9 138.2,70.5 138.9,74.7 "/>
<path fill="none" stroke="#1D1D1B" stroke-miterlimit="10" d="M205.3,60.3c-0.8,2.9-2.6,5.4-5.1,7.1c-2.2-1.5-4.8-2.4-7.6-2.4
	s-5.5,0.9-7.7,2.4c-2.4-1.7-4.2-4.2-5.1-7.1c1-0.7,1.7-1.8,1.7-3c0-1.4-0.8-2.6-2-3.2c0.3-1.4,0.8-2.8,1.5-4
	c0.3,0.1,0.6,0.1,0.8,0.1c2,0,3.6-1.6,3.6-3.6c0-0.4,0-0.7-0.1-0.9c1.2-0.8,2.6-1.4,4.1-1.8c0.6,1.1,1.8,1.8,3.1,1.8
	s2.5-0.8,3.1-1.8c1.6,0.4,3.1,1.1,4.4,2c0,0.3-0.1,0.5-0.1,0.8c0,2,1.6,3.6,3.6,3.6c0.2,0,0.3,0,0.5,0c0.8,1.2,1.2,2.5,1.5,3.9
	c-1.1,0.6-2,1.8-2,3.2C203.7,58.6,204.4,59.6,205.3,60.3z"/>
<path fill="#0D6AB7" stroke="#1D1D1B" stroke-miterlimit="10" d="M200.3,67.5c-2.2,1.5-4.8,2.4-7.6,2.4s-5.5-0.9-7.7-2.4
	c2.2-1.5,4.8-2.4,7.7-2.4C195.5,64.9,198.1,65.9,200.3,67.5z"/>
<path fill="none" stroke="#1D1D1B" stroke-miterlimit="10" d="M205.6,81c-0.1,0.6-0.3,1.1-0.5,1.7c-2,0-3.6,1.6-3.6,3.6
	c0,0.5,0.1,0.9,0.3,1.4c-0.4,0.4-0.8,0.8-1.3,1.1c-2.2-1.6-4.9-2.5-7.8-2.5c-2.9,0-5.6,0.9-7.8,2.5c-1.6-1.1-2.9-2.6-3.9-4.4
	c0.6-0.7,0.9-1.5,0.9-2.3c0-1.6-1-2.9-2.4-3.4c0-0.2,0-0.4,0-0.6c0-0.5,0-0.8,0.1-1.3c1.5-0.4,2.6-1.8,2.6-3.5
	c0-0.8-0.3-1.6-0.8-2.2c0.9-1.5,2.2-2.8,3.6-3.9c2.2,1.5,4.8,2.4,7.7,2.4c2.8,0,5.4-0.9,7.6-2.4c0.6,0.4,1.1,0.8,1.7,1.4
	c-0.1,0.3-0.2,0.7-0.2,1c0,1.9,1.4,3.4,3.2,3.6c0.2,0.6,0.4,1.1,0.6,1.8c-0.9,0.7-1.5,1.7-1.5,2.9C204,79.3,204.7,80.4,205.6,81z"/>
<path fill="#0D6AB7" stroke="#1D1D1B" stroke-miterlimit="10" d="M200.4,88.9c-2.2,1.6-4.9,2.5-7.8,2.5s-5.6-0.9-7.8-2.5
	c2.2-1.6,4.9-2.5,7.8-2.5S198.3,87.3,200.4,88.9z"/>
<path fill="#FF2939" stroke="#1D1D1B" stroke-miterlimit="10" d="M181.7,57.2c0,1.3-0.7,2.4-1.7,3c-0.3-1.1-0.5-2.3-0.5-3.7
	c0-0.9,0.1-1.8,0.3-2.6C180.8,54.6,181.7,55.8,181.7,57.2z"/>
<path fill="none" stroke="#1D1D1B" stroke-miterlimit="10" d="M180,60.3c-0.6,0.4-1.2,0.6-1.9,0.6c-2,0-3.6-1.6-3.6-3.6
	s1.6-3.6,3.6-3.6c0.6,0,1.1,0.2,1.6,0.4c-0.2,0.8-0.3,1.7-0.3,2.6C179.4,57.9,179.6,59.1,180,60.3z"/>
<path fill="#FF2939" stroke="#1D1D1B" stroke-miterlimit="10" d="M185.6,46.5c0,2-1.6,3.6-3.6,3.6c-0.3,0-0.6,0-0.8-0.1
	c1-1.8,2.4-3.3,4.2-4.4C185.5,45.9,185.6,46.2,185.6,46.5z"/>
<path fill="none" stroke="#1D1D1B" stroke-miterlimit="10" d="M185.4,45.6c-1.8,1.1-3.2,2.6-4.2,4.4c-1.6-0.4-2.8-1.8-2.8-3.5
	c0-2,1.6-3.6,3.6-3.6C183.6,43,185,44.1,185.4,45.6z"/>
<path fill="#FF2939" stroke="#1D1D1B" stroke-miterlimit="10" d="M195.8,43.8c-0.7,1.1-1.8,1.8-3.1,1.8s-2.5-0.8-3.1-1.8
	c1-0.2,2.1-0.4,3.1-0.4S194.8,43.5,195.8,43.8z"/>
<path fill="none" stroke="#1D1D1B" stroke-miterlimit="10" d="M196.2,42c0,0.7-0.2,1.2-0.5,1.8c-1-0.2-2.1-0.4-3.1-0.4
	s-2.1,0.1-3.1,0.4c-0.3-0.5-0.5-1.1-0.5-1.8c0-2,1.6-3.6,3.6-3.6S196.2,40.1,196.2,42z"/>
<path fill="#FF2939" stroke="#1D1D1B" stroke-miterlimit="10" d="M204.1,50.1c-0.2,0-0.3,0-0.5,0c-2,0-3.6-1.6-3.6-3.6
	c0-0.3,0-0.5,0.1-0.8C201.9,46.9,203.2,48.4,204.1,50.1z"/>
<path fill="none" stroke="#1D1D1B" stroke-miterlimit="10" d="M207.3,46.5c0,1.8-1.4,3.3-3.1,3.6c-0.9-1.7-2.3-3.2-3.9-4.3
	c0.4-1.6,1.8-2.8,3.5-2.8C205.7,43,207.3,44.6,207.3,46.5z"/>
<path fill="#FF2939" stroke="#1D1D1B" stroke-miterlimit="10" d="M205.9,56.7c0,1.2-0.2,2.4-0.5,3.6c-1-0.7-1.7-1.8-1.7-3
	c0-1.4,0.8-2.5,2-3.2C205.8,54.9,205.9,55.7,205.9,56.7z"/>
<path fill="none" stroke="#1D1D1B" stroke-miterlimit="10" d="M210.9,57.2c0,2-1.6,3.6-3.6,3.6c-0.7,0-1.3-0.2-1.9-0.6
	c0.4-1.1,0.5-2.3,0.5-3.6c0-0.8-0.1-1.8-0.3-2.6c0.5-0.3,1-0.4,1.7-0.4C209.3,53.7,210.9,55.3,210.9,57.2z"/>
<g>
	<path fill="none" stroke="#1D1D1B" stroke-miterlimit="10" d="M180.5,160.5c0.8-2.9,2.6-5.4,5.1-7.1c2.2,1.5,4.8,2.4,7.6,2.4
		s5.5-0.9,7.7-2.4c2.4,1.7,4.2,4.2,5.1,7.1c-1,0.7-1.7,1.8-1.7,3c0,1.4,0.8,2.6,2,3.2c-0.3,1.4-0.8,2.8-1.5,4
		c-0.3-0.1-0.6-0.1-0.8-0.1c-2,0-3.6,1.6-3.6,3.6c0,0.4,0,0.7,0.1,0.9c-1.2,0.8-2.6,1.4-4.1,1.8c-0.6-1.1-1.8-1.8-3.1-1.8
		s-2.5,0.8-3.1,1.8c-1.6-0.4-3.1-1.1-4.4-2c0-0.3,0.1-0.5,0.1-0.8c0-2-1.6-3.6-3.6-3.6c-0.2,0-0.3,0-0.5,0c-0.8-1.2-1.2-2.5-1.5-3.9
		c1.1-0.6,2-1.8,2-3.2C182.2,162.1,181.6,161,180.5,160.5z"/>
	<path fill="#0D6AB7" stroke="#1D1D1B" stroke-miterlimit="10" d="M185.6,153.2c2.2-1.5,4.8-2.4,7.6-2.4s5.5,0.9,7.7,2.4
		c-2.2,1.5-4.8,2.4-7.7,2.4C190.4,155.7,187.8,154.8,185.6,153.2z"/>
	<path fill="#FF2939" stroke="#1D1D1B" stroke-miterlimit="10" d="M204.3,163.5c0-1.3,0.7-2.4,1.7-3c0.3,1.1,0.5,2.3,0.5,3.7
		c0,0.9-0.1,1.8-0.3,2.6C205.1,166,204.3,164.9,204.3,163.5z"/>
	<path fill="none" stroke="#1D1D1B" stroke-miterlimit="10" d="M206,160.4c0.6-0.4,1.2-0.6,1.9-0.6c2,0,3.6,1.6,3.6,3.6
		s-1.6,3.6-3.6,3.6c-0.6,0-1.1-0.2-1.6-0.4c0.2-0.8,0.3-1.7,0.3-2.6C206.5,162.8,206.4,161.6,206,160.4z"/>
	<path fill="#FF2939" stroke="#1D1D1B" stroke-miterlimit="10" d="M200.4,174.2c0-2,1.6-3.6,3.6-3.6c0.3,0,0.6,0,0.8,0.1
		c-1,1.8-2.4,3.3-4.2,4.4C200.4,174.8,200.4,174.4,200.4,174.2z"/>
	<path fill="none" stroke="#1D1D1B" stroke-miterlimit="10" d="M200.4,175.1c1.8-1.1,3.2-2.6,4.2-4.4c1.6,0.4,2.8,1.8,2.8,3.5
		c0,2-1.6,3.6-3.6,3.6C202.3,177.7,200.9,176.6,200.4,175.1z"/>
	<path fill="#FF2939" stroke="#1D1D1B" stroke-miterlimit="10" d="M190.1,176.9c0.7-1.1,1.8-1.8,3.1-1.8s2.5,0.8,3.1,1.8
		c-1,0.2-2.1,0.4-3.1,0.4C192.2,177.3,191.2,177.1,190.1,176.9z"/>
	<path fill="none" stroke="#1D1D1B" stroke-miterlimit="10" d="M189.7,178.7c0-0.7,0.2-1.2,0.5-1.8c1,0.2,2.1,0.4,3.1,0.4
		s2.1-0.1,3.1-0.4c0.3,0.5,0.5,1.1,0.5,1.8c0,2-1.6,3.6-3.6,3.6C191.3,182.2,189.7,180.6,189.7,178.7z"/>
	<path fill="#FF2939" stroke="#1D1D1B" stroke-miterlimit="10" d="M181.8,170.6c0.2,0,0.3,0,0.5,0c2,0,3.6,1.6,3.6,3.6
		c0,0.3,0,0.5-0.1,0.8C184.1,173.8,182.8,172.3,181.8,170.6z"/>
	<path fill="none" stroke="#1D1D1B" stroke-miterlimit="10" d="M178.7,174.2c0-1.8,1.4-3.3,3.1-3.6c0.9,1.7,2.3,3.2,3.9,4.3
		c-0.4,1.6-1.8,2.8-3.5,2.8C180.3,177.7,178.7,176.1,178.7,174.2z"/>
	<path fill="#FF2939" stroke="#1D1D1B" stroke-miterlimit="10" d="M180.1,164c0-1.2,0.2-2.4,0.5-3.6c1,0.7,1.7,1.8,1.7,3
		c0,1.4-0.8,2.5-2,3.2C180.2,165.8,180.1,164.9,180.1,164z"/>
	<path fill="none" stroke="#1D1D1B" stroke-miterlimit="10" d="M175.1,163.5c0-2,1.6-3.6,3.6-3.6c0.7,0,1.3,0.2,1.9,0.6
		c-0.4,1.1-0.5,2.3-0.5,3.6c0,0.8,0.1,1.8,0.3,2.6c-0.5,0.3-1,0.4-1.7,0.4C176.7,167,175.1,165.4,175.1,163.5z"/>
</g>
<path fill="#FF2939" stroke="#1D1D1B" stroke-miterlimit="10" d="M205.9,78.2c0,0.9-0.1,1.9-0.3,2.8c-0.9-0.7-1.5-1.7-1.5-2.9
	c0-1.2,0.6-2.3,1.5-2.9C205.8,76.2,205.9,77.2,205.9,78.2z"/>
<path fill="none" stroke="#1D1D1B" stroke-miterlimit="10" d="M211.2,78.1c0,2-1.6,3.6-3.6,3.6c-0.8,0-1.5-0.3-2.1-0.7
	c0.2-0.9,0.3-1.9,0.3-2.8c0-1-0.1-2.1-0.4-3c0.6-0.5,1.3-0.7,2.1-0.7C209.7,74.5,211.2,76.1,211.2,78.1z"/>
<path fill="#FF2939" stroke="#1D1D1B" stroke-miterlimit="10" d="M205.1,82.8c-0.7,1.9-1.8,3.6-3.3,5c-0.2-0.5-0.3-0.9-0.3-1.4
	C201.6,84.4,203.2,82.8,205.1,82.8z"/>
<path fill="none" stroke="#1D1D1B" stroke-miterlimit="10" d="M208.7,86.4c0,2-1.6,3.6-3.6,3.6c-1.5,0-2.7-0.9-3.3-2.2
	c1.4-1.4,2.5-3.1,3.3-5l0,0C207.1,82.8,208.7,84.4,208.7,86.4z"/>
<path fill="#FF2939" stroke="#1D1D1B" stroke-miterlimit="10" d="M181.9,82.1c0,0.9-0.4,1.7-0.9,2.3c-0.9-1.7-1.5-3.7-1.6-5.7
	C180.9,79.2,181.9,80.5,181.9,82.1z"/>
<path fill="none" stroke="#1D1D1B" stroke-miterlimit="10" d="M181,84.5c-0.7,0.8-1.6,1.2-2.7,1.2c-2,0-3.6-1.6-3.6-3.6
	s1.6-3.6,3.6-3.6c0.4,0,0.8,0.1,1.1,0.2C179.5,80.8,180.1,82.8,181,84.5z"/>
<path fill="#FF2939" stroke="#1D1D1B" stroke-miterlimit="10" d="M182.1,73.5c0,1.7-1.1,3-2.6,3.5c0.2-2.1,0.8-3.9,1.9-5.6
	C181.9,71.9,182.1,72.6,182.1,73.5z"/>
<path fill="none" stroke="#1D1D1B" stroke-miterlimit="10" d="M181.4,71.2c-1,1.7-1.7,3.6-1.9,5.6c-0.3,0.1-0.6,0.1-0.9,0.1
	c-2,0-3.6-1.6-3.6-3.6s1.6-3.6,3.6-3.6C179.7,69.9,180.7,70.4,181.4,71.2z"/>
<path fill="#FF2939" stroke="#1D1D1B" stroke-miterlimit="10" d="M205,73.4c-1.8-0.2-3.2-1.7-3.2-3.6c0-0.4,0.1-0.8,0.2-1
	C203.3,70.1,204.3,71.7,205,73.4z"/>
<path fill="none" stroke="#1D1D1B" stroke-miterlimit="10" d="M209,69.9c0,2-1.6,3.6-3.6,3.6c-0.1,0-0.3,0-0.4,0
	c-0.7-1.8-1.7-3.3-3-4.6c0.5-1.5,1.8-2.5,3.4-2.5C207.3,66.3,209,68,209,69.9z"/>
<g>
	<path fill="#0D6AB7" stroke="#1D1D1B" stroke-miterlimit="10" d="M185.3,110.4c2.2-1.5,4.8-2.4,7.6-2.4s5.5,0.9,7.7,2.4
		c-2.2,1.5-4.8,2.4-7.6,2.4C190.1,112.8,187.5,111.9,185.3,110.4z"/>
	<path fill="none" stroke="#1D1D1B" stroke-miterlimit="10" d="M180.1,96.8c0.1-0.6,0.3-1.1,0.5-1.7c2,0,3.6-1.6,3.6-3.6
		c0-0.5-0.1-0.9-0.3-1.4c0.4-0.4,0.8-0.8,1.3-1.1c2.2,1.6,4.9,2.5,7.8,2.5s5.6-0.9,7.8-2.5c1.6,1.1,2.9,2.6,3.9,4.4
		c-0.6,0.7-0.9,1.5-0.9,2.3c0,1.6,1,2.9,2.4,3.4c0,0.2,0,0.4,0,0.6c0,0.5,0,0.8-0.1,1.3c-1.5,0.4-2.6,1.8-2.6,3.5
		c0,0.8,0.3,1.6,0.8,2.2c-0.9,1.5-2.2,2.8-3.6,3.9c-2.2-1.5-4.8-2.4-7.7-2.4c-2.8,0-5.4,0.9-7.6,2.4c-0.6-0.4-1.1-0.8-1.7-1.4
		c0.1-0.3,0.2-0.7,0.2-1c0-1.9-1.4-3.4-3.2-3.6c-0.2-0.6-0.4-1.1-0.6-1.8c0.9-0.7,1.5-1.7,1.5-2.9C181.6,98.6,181,97.4,180.1,96.8z"
		/>
	<path fill="#0D6AB7" stroke="#1D1D1B" stroke-miterlimit="10" d="M185.1,89c2.2-1.6,4.9-2.5,7.8-2.5s5.6,0.9,7.8,2.5
		c-2.2,1.6-4.9,2.5-7.8,2.5C190.1,91.5,187.4,90.6,185.1,89z"/>
	<path fill="#FF2939" stroke="#1D1D1B" stroke-miterlimit="10" d="M179.8,99.6c0-0.9,0.1-1.9,0.3-2.8c0.9,0.7,1.5,1.7,1.5,2.9
		c0,1.2-0.6,2.3-1.5,2.9C179.9,101.7,179.8,100.6,179.8,99.6z"/>
	<path fill="none" stroke="#1D1D1B" stroke-miterlimit="10" d="M174.4,99.7c0-2,1.6-3.6,3.6-3.6c0.8,0,1.5,0.3,2.1,0.7
		c-0.2,0.9-0.3,1.9-0.3,2.8c0,1,0.1,2.1,0.4,3c-0.6,0.5-1.3,0.7-2.1,0.7C176,103.3,174.4,101.7,174.4,99.7z"/>
	<path fill="#FF2939" stroke="#1D1D1B" stroke-miterlimit="10" d="M180.5,95.1c0.7-1.9,1.8-3.6,3.3-5c0.2,0.5,0.3,0.9,0.3,1.4
		C184.1,93.5,182.5,95.1,180.5,95.1z"/>
	<path fill="none" stroke="#1D1D1B" stroke-miterlimit="10" d="M177,91.5c0-2,1.6-3.6,3.6-3.6c1.5,0,2.7,0.9,3.3,2.2
		c-1.4,1.4-2.5,3.1-3.3,5l0,0C178.6,95.1,177,93.5,177,91.5z"/>
	<path fill="#FF2939" stroke="#1D1D1B" stroke-miterlimit="10" d="M203.7,95.7c0-0.9,0.4-1.7,0.9-2.3c0.9,1.7,1.5,3.7,1.6,5.7
		C204.8,98.6,203.7,97.3,203.7,95.7z"/>
	<path fill="none" stroke="#1D1D1B" stroke-miterlimit="10" d="M204.7,93.3c0.7-0.8,1.6-1.2,2.7-1.2c2,0,3.6,1.6,3.6,3.6
		s-1.6,3.6-3.6,3.6c-0.4,0-0.8-0.1-1.1-0.2C206.1,97,205.5,95.1,204.7,93.3z"/>
	<path fill="#FF2939" stroke="#1D1D1B" stroke-miterlimit="10" d="M203.5,104.4c0-1.7,1.1-3,2.6-3.5c-0.2,2.1-0.8,3.9-1.9,5.6
		C203.7,106,203.5,105.2,203.5,104.4z"/>
	<path fill="none" stroke="#1D1D1B" stroke-miterlimit="10" d="M204.2,106.6c1-1.7,1.7-3.6,1.9-5.6c0.3-0.1,0.6-0.1,0.9-0.1
		c2,0,3.6,1.6,3.6,3.6S209,108,207,108C205.9,108,204.9,107.4,204.2,106.6z"/>
	<path fill="#FF2939" stroke="#1D1D1B" stroke-miterlimit="10" d="M180.6,104.4c1.8,0.2,3.2,1.7,3.2,3.6c0,0.4-0.1,0.8-0.2,1
		C182.4,107.7,181.3,106.2,180.6,104.4z"/>
	<path fill="none" stroke="#1D1D1B" stroke-miterlimit="10" d="M176.7,108c0-2,1.6-3.6,3.6-3.6c0.1,0,0.3,0,0.4,0
		c0.7,1.8,1.7,3.3,3,4.6c-0.5,1.5-1.8,2.5-3.4,2.5C178.3,111.5,176.7,109.9,176.7,108z"/>
</g>
<g>
	<path fill="#0D6AB7" stroke="#1D1D1B" stroke-miterlimit="10" d="M200.5,110.3c-2.2,1.5-4.8,2.4-7.6,2.4s-5.5-0.9-7.7-2.4
		c2.2-1.5,4.8-2.4,7.7-2.4C195.8,107.9,198.4,108.7,200.5,110.3z"/>
	<path fill="none" stroke="#1D1D1B" stroke-miterlimit="10" d="M205.8,123.9c-0.1,0.6-0.3,1.1-0.5,1.7c-2,0-3.6,1.6-3.6,3.6
		c0,0.5,0.1,0.9,0.3,1.4c-0.4,0.4-0.8,0.8-1.3,1.1c-2.2-1.6-4.9-2.5-7.8-2.5s-5.6,0.9-7.8,2.5c-1.6-1.1-2.9-2.6-3.9-4.4
		c0.6-0.7,0.9-1.5,0.9-2.3c0-1.6-1-2.9-2.4-3.4c0-0.2,0-0.4,0-0.6c0-0.5,0-0.8,0.1-1.3c1.5-0.4,2.6-1.8,2.6-3.5
		c0-0.8-0.3-1.6-0.8-2.2c0.9-1.5,2.2-2.8,3.6-3.9c2.2,1.5,4.8,2.4,7.7,2.4c2.8,0,5.4-0.9,7.6-2.4c0.6,0.4,1.1,0.8,1.7,1.4
		c-0.1,0.3-0.2,0.7-0.2,1c0,1.9,1.4,3.4,3.2,3.6c0.2,0.6,0.4,1.1,0.6,1.8c-0.9,0.7-1.5,1.7-1.5,2.9
		C204.3,122.1,205,123.3,205.8,123.9z"/>
	<path fill="#0D6AB7" stroke="#1D1D1B" stroke-miterlimit="10" d="M200.7,131.7c-2.2,1.6-4.9,2.5-7.8,2.5s-5.6-0.9-7.8-2.5
		c2.2-1.6,4.9-2.5,7.8-2.5S198.6,130.1,200.7,131.7z"/>
	<path fill="#FF2939" stroke="#1D1D1B" stroke-miterlimit="10" d="M206.2,121.1c0,0.9-0.1,1.9-0.3,2.8c-0.9-0.7-1.5-1.7-1.5-2.9
		s0.6-2.3,1.5-2.9C206,119,206.2,120.1,206.2,121.1z"/>
	<path fill="none" stroke="#1D1D1B" stroke-miterlimit="10" d="M211.4,120.9c0,2-1.6,3.6-3.6,3.6c-0.8,0-1.5-0.3-2.1-0.7
		c0.2-0.9,0.3-1.9,0.3-2.8c0-1-0.1-2.1-0.4-3c0.6-0.5,1.3-0.7,2.1-0.7C209.8,117.4,211.4,118.9,211.4,120.9z"/>
	<path fill="#FF2939" stroke="#1D1D1B" stroke-miterlimit="10" d="M205.3,125.6c-0.7,1.9-1.8,3.6-3.3,5c-0.2-0.5-0.3-0.9-0.3-1.4
		C201.8,127.2,203.4,125.6,205.3,125.6z"/>
	<path fill="none" stroke="#1D1D1B" stroke-miterlimit="10" d="M209,129.2c0,2-1.6,3.6-3.6,3.6c-1.5,0-2.7-0.9-3.3-2.2
		c1.4-1.4,2.5-3.1,3.3-5l0,0C207.4,125.6,209,127.2,209,129.2z"/>
	<path fill="#FF2939" stroke="#1D1D1B" stroke-miterlimit="10" d="M182.1,125c0,0.9-0.4,1.7-0.9,2.3c-0.9-1.7-1.5-3.7-1.6-5.7
		C181.1,122,182.1,123.5,182.1,125z"/>
	<path fill="none" stroke="#1D1D1B" stroke-miterlimit="10" d="M181.3,127.4c-0.7,0.8-1.6,1.2-2.7,1.2c-2,0-3.6-1.6-3.6-3.6
		s1.6-3.6,3.6-3.6c0.4,0,0.8,0.1,1.1,0.2C179.8,123.6,180.4,125.6,181.3,127.4z"/>
	<path fill="#FF2939" stroke="#1D1D1B" stroke-miterlimit="10" d="M182.4,116.3c0,1.7-1.1,3-2.6,3.5c0.2-2.1,0.8-3.9,1.9-5.6
		C182.1,114.7,182.4,115.5,182.4,116.3z"/>
	<path fill="none" stroke="#1D1D1B" stroke-miterlimit="10" d="M181.7,114.2c-1,1.7-1.7,3.6-1.9,5.6c-0.3,0.1-0.6,0.1-0.9,0.1
		c-2,0-3.6-1.6-3.6-3.6s1.6-3.6,3.6-3.6C180,112.7,181,113.3,181.7,114.2z"/>
	<path fill="#FF2939" stroke="#1D1D1B" stroke-miterlimit="10" d="M205.2,116.3c-1.8-0.2-3.2-1.7-3.2-3.6c0-0.4,0.1-0.8,0.2-1
		C203.5,112.9,204.6,114.5,205.2,116.3z"/>
	<path fill="none" stroke="#1D1D1B" stroke-miterlimit="10" d="M209.2,112.7c0,2-1.6,3.6-3.6,3.6c-0.1,0-0.3,0-0.4,0
		c-0.7-1.8-1.7-3.3-3-4.6c0.5-1.5,1.8-2.5,3.4-2.5C207.6,109.2,209.2,110.8,209.2,112.7z"/>
</g>
<g>
	<path fill="#0D6AB7" stroke="#1D1D1B" stroke-miterlimit="10" d="M185.4,153.2c2.2-1.5,4.8-2.4,7.6-2.4s5.5,0.9,7.7,2.4
		c-2.2,1.5-4.8,2.4-7.7,2.4C190.2,155.7,187.6,154.8,185.4,153.2z"/>
	<path fill="none" stroke="#1D1D1B" stroke-miterlimit="10" d="M180.2,139.7c0.1-0.6,0.3-1.1,0.5-1.7c2,0,3.6-1.6,3.6-3.6
		c0-0.5-0.1-0.9-0.3-1.4c0.4-0.4,0.8-0.8,1.3-1.1c2.2,1.6,4.9,2.5,7.8,2.5c2.9,0,5.6-0.9,7.8-2.5c1.6,1.1,2.9,2.6,3.9,4.4
		c-0.6,0.7-0.9,1.5-0.9,2.3c0,1.6,1,2.9,2.4,3.4c0,0.2,0,0.4,0,0.6c0,0.5,0,0.8-0.1,1.3c-1.5,0.4-2.6,1.8-2.6,3.5
		c0,0.8,0.3,1.6,0.8,2.2c-0.9,1.5-2.2,2.8-3.6,3.9c-2.2-1.5-4.8-2.4-7.7-2.4c-2.8,0-5.4,0.9-7.6,2.4c-0.6-0.4-1.1-0.8-1.7-1.4
		c0.1-0.3,0.2-0.7,0.2-1c0-1.9-1.4-3.4-3.2-3.6c-0.2-0.6-0.4-1.1-0.6-1.8c0.9-0.7,1.5-1.7,1.5-2.9
		C181.7,141.4,181.1,140.3,180.2,139.7z"/>
	<path fill="#0D6AB7" stroke="#1D1D1B" stroke-miterlimit="10" d="M185.3,131.8c2.2-1.6,4.9-2.5,7.8-2.5s5.6,0.9,7.8,2.5
		c-2.2,1.6-4.9,2.5-7.8,2.5S187.5,133.4,185.3,131.8z"/>
	<path fill="#FF2939" stroke="#1D1D1B" stroke-miterlimit="10" d="M179.9,142.5c0-0.9,0.1-1.9,0.3-2.8c0.9,0.7,1.5,1.7,1.5,2.9
		s-0.6,2.3-1.5,2.9C180,144.5,179.9,143.6,179.9,142.5z"/>
	<path fill="none" stroke="#1D1D1B" stroke-miterlimit="10" d="M174.5,142.6c0-2,1.6-3.6,3.6-3.6c0.8,0,1.5,0.3,2.1,0.7
		c-0.2,0.9-0.3,1.9-0.3,2.8c0,1,0.1,2.1,0.4,3c-0.6,0.5-1.3,0.7-2.1,0.7C176.1,146.2,174.5,144.6,174.5,142.6z"/>
	<path fill="#FF2939" stroke="#1D1D1B" stroke-miterlimit="10" d="M180.6,137.9c0.7-1.9,1.8-3.6,3.3-5c0.2,0.5,0.3,0.9,0.3,1.4
		C184.2,136.3,182.6,137.9,180.6,137.9z"/>
	<path fill="none" stroke="#1D1D1B" stroke-miterlimit="10" d="M177.1,134.3c0-2,1.6-3.6,3.6-3.6c1.5,0,2.7,0.9,3.3,2.2
		c-1.4,1.4-2.5,3.1-3.3,5l0,0C178.7,137.9,177.1,136.3,177.1,134.3z"/>
	<path fill="#FF2939" stroke="#1D1D1B" stroke-miterlimit="10" d="M203.8,138.6c0-0.9,0.4-1.7,0.9-2.3c0.9,1.7,1.5,3.7,1.6,5.7
		C204.9,141.5,203.8,140.1,203.8,138.6z"/>
	<path fill="none" stroke="#1D1D1B" stroke-miterlimit="10" d="M204.8,136.2c0.7-0.8,1.6-1.2,2.7-1.2c2,0,3.6,1.6,3.6,3.6
		s-1.6,3.6-3.6,3.6c-0.4,0-0.8-0.1-1.1-0.2C206.3,139.9,205.7,137.9,204.8,136.2z"/>
	<path fill="#FF2939" stroke="#1D1D1B" stroke-miterlimit="10" d="M203.5,147.2c0-1.7,1.1-3,2.6-3.5c-0.2,2.1-0.8,3.9-1.9,5.6
		C203.8,148.8,203.5,148.1,203.5,147.2z"/>
	<path fill="none" stroke="#1D1D1B" stroke-miterlimit="10" d="M204.3,149.5c1-1.7,1.7-3.6,1.9-5.6c0.3-0.1,0.6-0.1,0.9-0.1
		c2,0,3.6,1.6,3.6,3.6s-1.6,3.6-3.6,3.6C206,150.8,205,150.3,204.3,149.5z"/>
	<path fill="#FF2939" stroke="#1D1D1B" stroke-miterlimit="10" d="M180.7,147.2c1.8,0.2,3.2,1.7,3.2,3.6c0,0.4-0.1,0.8-0.2,1
		C182.5,150.6,181.5,149,180.7,147.2z"/>
	<path fill="none" stroke="#1D1D1B" stroke-miterlimit="10" d="M176.8,150.8c0-2,1.6-3.6,3.6-3.6c0.1,0,0.3,0,0.4,0
		c0.7,1.8,1.7,3.3,3,4.6c-0.5,1.5-1.8,2.5-3.4,2.5C178.4,154.4,176.8,152.8,176.8,150.8z"/>
</g>
<g enable-background="new    ">
	<path d="M194.5,60.8H193v-9.6c-0.4,0.3-0.8,0.7-1.4,1c-0.6,0.3-1.1,0.6-1.6,0.8v-1.5c0.8-0.4,1.6-0.9,2.2-1.4
		c0.6-0.6,1.1-1.1,1.3-1.6h1V60.8z"/>
</g>
<g enable-background="new    ">
	<path d="M196.5,82.2v1.4h-8.1c0-0.4,0-0.7,0.2-1c0.2-0.6,0.5-1.1,1-1.6s1.1-1.2,2-1.9c1.3-1.1,2.2-2,2.7-2.6s0.7-1.2,0.7-1.8
		c0-0.6-0.2-1.1-0.6-1.5c-0.4-0.4-1-0.6-1.7-0.6s-1.3,0.2-1.7,0.7c-0.4,0.4-0.7,1-0.7,1.8l-1.5-0.2c0.1-1.2,0.5-2,1.2-2.6
		s1.6-0.9,2.8-0.9s2.1,0.3,2.8,1s1,1.5,1,2.4c0,0.5-0.1,1-0.3,1.4c-0.2,0.5-0.5,1-1,1.5s-1.2,1.2-2.3,2.2c-0.9,0.8-1.5,1.3-1.7,1.5
		s-0.5,0.5-0.6,0.8C190.7,82.2,196.5,82.2,196.5,82.2z"/>
</g>
<g enable-background="new    ">
	<path d="M189.3,101.9l1.5-0.2c0.2,0.9,0.5,1.5,0.9,1.8c0.4,0.4,0.9,0.6,1.5,0.6c0.7,0,1.3-0.2,1.8-0.7s0.7-1.1,0.7-1.8
		c0-0.7-0.2-1.3-0.7-1.7c-0.5-0.4-1-0.7-1.7-0.7c-0.3,0-0.6,0.1-1.1,0.2l0.2-1.3c0.1,0,0.2,0,0.2,0c0.6,0,1.2-0.2,1.7-0.5
		s0.8-0.9,0.8-1.5s-0.2-1-0.6-1.4c-0.4-0.4-0.9-0.5-1.4-0.5c-0.6,0-1.1,0.2-1.5,0.6s-0.6,0.9-0.8,1.7l-1.5-0.3
		c0.2-1,0.6-1.8,1.3-2.3c0.7-0.6,1.5-0.8,2.4-0.8c0.7,0,1.3,0.1,1.9,0.4c0.6,0.3,1,0.7,1.3,1.2s0.4,1,0.4,1.6c0,0.5-0.1,1-0.4,1.4
		c-0.3,0.4-0.7,0.8-1.3,1c0.7,0.2,1.3,0.5,1.7,1s0.6,1.2,0.6,2c0,1.1-0.4,2-1.2,2.7s-1.8,1.1-3,1.1c-1.1,0-2-0.3-2.7-1
		C189.8,103.7,189.4,102.9,189.3,101.9z"/>
</g>
<g enable-background="new    ">
	<path d="M194.1,127.4v-2.9h-5.3V123l5.6-8h1.2v8h1.7v1.4h-1.7v2.9L194.1,127.4L194.1,127.4z M194.1,123v-5.5l-3.8,5.5H194.1z"/>
</g>
<g enable-background="new    ">
	<path d="M188.8,144.9l1.6-0.1c0.1,0.8,0.4,1.3,0.8,1.7c0.4,0.4,0.9,0.6,1.5,0.6c0.7,0,1.3-0.3,1.8-0.8s0.8-1.3,0.8-2.2
		s-0.2-1.5-0.7-2s-1.1-0.7-1.9-0.7c-0.5,0-0.9,0.1-1.3,0.3c-0.4,0.2-0.7,0.5-0.9,0.9l-1.4-0.2l1.2-6.3h6.1v1.4h-4.9l-0.7,3.3
		c0.7-0.5,1.5-0.8,2.3-0.8c1.1,0,2,0.4,2.7,1.1c0.7,0.7,1.1,1.7,1.1,2.9c0,1.1-0.3,2.1-1,2.9c-0.8,1-1.9,1.5-3.2,1.5
		c-1.1,0-2-0.3-2.7-0.9C189.4,146.8,188.9,146,188.8,144.9z"/>
</g>
<g enable-background="new    ">
	<path d="M196.7,160.9l-1.5,0.1c-0.1-0.6-0.3-1-0.6-1.3c-0.4-0.4-0.9-0.6-1.5-0.6c-0.5,0-0.9,0.1-1.3,0.4c-0.5,0.3-0.8,0.9-1.1,1.5
		c-0.3,0.7-0.4,1.6-0.4,2.8c0.4-0.6,0.8-1,1.3-1.2c0.5-0.3,1.1-0.4,1.6-0.4c1,0,1.9,0.4,2.6,1.1c0.7,0.7,1.1,1.7,1.1,2.9
		c0,0.8-0.2,1.5-0.5,2.1c-0.3,0.7-0.8,1.2-1.4,1.5c-0.6,0.4-1.2,0.5-2,0.5c-1.3,0-2.3-0.5-3.1-1.4s-1.2-2.4-1.2-4.6
		c0-2.4,0.4-4.1,1.3-5.2c0.8-0.9,1.8-1.4,3.1-1.4c1,0,1.8,0.3,2.4,0.8C196.2,159.2,196.5,159.9,196.7,160.9z M190.5,166.2
		c0,0.5,0.1,1,0.3,1.5s0.5,0.8,0.9,1.1c0.4,0.2,0.8,0.4,1.2,0.4c0.6,0,1.2-0.3,1.6-0.8s0.7-1.2,0.7-2.1c0-0.8-0.2-1.5-0.7-2
		s-1-0.7-1.7-0.7s-1.3,0.2-1.7,0.7C190.8,164.7,190.5,165.4,190.5,166.2z"/>
</g>
<path fill="none" stroke="#1D1D1B" stroke-miterlimit="10" d="M140.6,71.8c3-5,4.7-10.8,4.7-17.1c0-18.4-15-33.4-33.4-33.4
	c-18.4,0-33.4,15-33.4,33.4c0,6.2,1.7,12.1,4.7,17.1"/>
<g>
	<path fill="#FF2939" d="M82.9,52.6L82.9,52.6l-1,0.5l-0.1-0.6L83,52h0.6v5.5h-0.7V52.6z"/>
</g>
<g>
	<path fill="#FF2939" d="M92.1,34.2v-0.5l0.6-0.6c1.4-1.3,2-2,2-2.9c0-0.6-0.3-1.1-1.1-1.1c-0.5,0-0.9,0.3-1.2,0.5l-0.2-0.5
		c0.4-0.3,0.9-0.6,1.6-0.6c1.2,0,1.7,0.8,1.7,1.6c0,1-0.7,1.8-1.9,3l-0.4,0.4v0h2.5v0.6H92.1z"/>
</g>
<g>
	<path fill="#FF2939" d="M117.4,28.2c0.2,0.1,0.7,0.3,1.2,0.3c1,0,1.3-0.6,1.2-1.1c0-0.8-0.7-1.1-1.4-1.1H118v-0.6h0.4
		c0.5,0,1.2-0.3,1.2-0.9c0-0.4-0.3-0.8-1-0.8c-0.4,0-0.9,0.2-1.1,0.4l-0.2-0.5c0.3-0.2,0.8-0.4,1.4-0.4c1.1,0,1.6,0.6,1.6,1.3
		c0,0.6-0.3,1.1-1,1.3v0c0.7,0.1,1.2,0.6,1.2,1.4c0,0.9-0.7,1.7-2,1.7c-0.6,0-1.2-0.2-1.4-0.4L117.4,28.2z"/>
</g>
<g>
	<path fill="#FF2939" d="M139,45.4v-1.5h-2.6v-0.5l2.5-3.5h0.8v3.4h0.8v0.6h-0.8v1.5H139z M139,43.4v-1.8c0-0.3,0-0.6,0-0.9h0
		c-0.2,0.3-0.3,0.6-0.5,0.8l-1.3,1.9v0H139z"/>
</g>
<g>
	<path fill="#FF2939" d="M140.2,63.7h-2.1l-0.2,1.4c0.1,0,0.2,0,0.4,0c0.4,0,0.8,0.1,1.2,0.3c0.4,0.2,0.8,0.7,0.8,1.4
		c0,1.1-0.9,1.9-2,1.9c-0.6,0-1.1-0.2-1.4-0.3l0.2-0.6c0.2,0.1,0.7,0.3,1.2,0.3c0.7,0,1.3-0.5,1.3-1.2c0-0.7-0.5-1.2-1.6-1.2
		c-0.3,0-0.6,0-0.8,0.1l0.4-2.6h2.6V63.7z"/>
</g>
</svg>
